<svg width="68" height="64" fill="none" xmlns="http://www.w3.org/2000/svg"><path d="M13.622 10.927 5.79 1.017H3.347V17h3.014V6.223l8.402 10.8V17h1.873V.994h-3.014v9.933ZM21.953 17V1.017h-2.991V17h2.991Zm-6.801 18.913c-1.05 1.05-2.626 1.621-4.019 1.621-3.95 0-5.48-2.763-5.503-5.411-.022-2.672 1.644-5.548 5.503-5.548 1.393 0 2.808.479 3.859 1.506L17 26.141c-1.644-1.621-3.699-2.443-5.868-2.443-5.777 0-8.494 4.247-8.47 8.425.022 4.155 2.534 8.242 8.47 8.242 2.306 0 4.43-.753 6.073-2.374l-2.054-2.078ZM25.96 23.698c-5.526 0-8.22 4.224-8.22 8.425 0 4.201 2.603 8.242 8.22 8.242 5.616 0 8.15-4.132 8.196-8.265.046-4.178-2.694-8.402-8.196-8.402Zm0 2.74c3.767 0 5.274 3.013 5.228 5.708-.046 2.625-1.461 5.457-5.229 5.457-3.767 0-5.183-2.809-5.251-5.434-.069-2.695 1.484-5.731 5.252-5.731Zm16.031-2.42h-6.278V40h6.278c5.594 0 8.06-4.087 7.992-8.128-.069-3.95-2.512-7.855-7.992-7.855Zm-3.287 2.853h3.287c3.471 0 4.932 2.49 5 4.978.07 2.603-1.37 5.251-5 5.251h-3.287V26.871Zm24.73 10.16h-8.973v-3.607h8.653v-2.808h-8.653V26.94h8.973v-2.923H51.47V40h11.964v-2.968ZM17.047 63.024h3.014V47.04h-3.448l-5 6.873-5-6.873H3.141v15.983h3.014V51.4l5.091 6.964h.594l5.206-6.941v11.599Zm12.905-16.325c-5.526 0-8.22 4.224-8.22 8.425 0 4.201 2.603 8.242 8.22 8.242 5.616 0 8.15-4.132 8.197-8.265.045-4.178-2.695-8.402-8.197-8.402Zm0 2.74c3.767 0 5.274 3.013 5.228 5.708-.045 2.625-1.46 5.457-5.228 5.457s-5.183-2.809-5.252-5.434c-.068-2.695 1.484-5.731 5.252-5.731Zm22.665.205c-1.21-2.466-3.79-3.174-6.279-3.174-2.945.023-6.187 1.37-6.187 4.658 0 3.585 3.014 4.453 6.279 4.84 2.123.229 3.699.845 3.699 2.352 0 1.736-1.782 2.398-3.677 2.398-1.94 0-3.79-.776-4.498-2.535l-2.511 1.302c1.187 2.922 3.699 3.927 6.964 3.927 3.562 0 6.713-1.53 6.713-5.092 0-3.813-3.106-4.68-6.44-5.091-1.917-.229-3.561-.617-3.561-2.01 0-1.187 1.073-2.123 3.31-2.123 1.736 0 3.243.868 3.79 1.781l2.398-1.233Z" fill="#fff"/><path stroke="#fff" d="M.5 1v62"/></svg>